<?xml version="1.0" encoding="UTF-8"?>
<svg width="86.455mm" height="94.316mm" version="1.1" viewBox="0 0 86.455 94.316" xmlns="http://www.w3.org/2000/svg" xmlns:cc="http://creativecommons.org/ns#" xmlns:dc="http://purl.org/dc/elements/1.1/" xmlns:rdf="http://www.w3.org/1999/02/22-rdf-syntax-ns#">
 <metadata>
  <rdf:RDF>
   <cc:Work rdf:about="">
    <dc:format>image/svg+xml</dc:format>
    <dc:type rdf:resource="http://purl.org/dc/dcmitype/StillImage"/>
    <dc:title/>
   </cc:Work>
  </rdf:RDF>
 </metadata>
 <g>
  <path d="m64.839 84.591c-22.46 12.967-20.764 12.967-43.223-2e-6 -22.46-12.967-21.612-11.499-21.612-37.433 1.27e-6 -25.934-0.84784-24.466 21.612-37.433 22.46-12.967 20.764-12.967 43.223 2.1e-6 22.46 12.967 21.612 11.499 21.612 37.433-1e-6 25.934 0.84784 24.466-21.612 37.433z" fill="#ececec" stroke-width=".2"/>
  <path d="m63.324 81.966c-20.885 12.058-19.308 12.058-40.193-2e-6 -20.885-12.058-20.096-10.692-20.096-34.808 1.2e-6 -24.116-0.78839-22.75 20.096-34.808 20.885-12.058 19.308-12.058 40.193 2e-6 20.885 12.058 20.096 10.692 20.096 34.808-1e-6 24.116 0.78839 22.75-20.096 34.808z" fill="#808080" stroke-width=".18598"/>
 </g>
</svg>
